<?xml version="1.0" encoding="utf-8"?>
<!-- Generator: Adobe Illustrator 26.0.3, SVG Export Plug-In . SVG Version: 6.00 Build 0)  -->
<svg version="1.1" id="Layer_1" xmlns="http://www.w3.org/2000/svg" xmlns:xlink="http://www.w3.org/1999/xlink" x="0px" y="0px"
	 viewBox="0 0 1500 1500" style="enable-background:new 0 0 1500 1500;" xml:space="preserve">
<style type="text/css">
	.st0{fill:#FF6C37;}
	.st1{fill:#FFFFFF;}
</style>
<g>
	<path class="st0" d="M1278,342.3C1052.8,50.7,633.9-3.1,342.3,222.1S-3.1,866.1,222.1,1157.7s644.1,345.4,935.6,120.2
		c0.1,0,0.1-0.1,0.2-0.1C1449.3,1052.6,1503.1,633.8,1278,342.3L1278,342.3z"/>
	<path class="st1" d="M975,508L693.7,791.5l-79.5-81.7C891.1,432.9,918.9,457.9,975,508L975,508z"/>
	<path class="st0" d="M693.7,799.2c-2.5-0.1-4.9-1-6.7-2.8l-80-80c-3.7-3.9-3.7-10,0-13.9c272.9-272.9,310.2-260.1,374.6-201.8
		c2.2,1.8,3.4,4.4,3.3,7.2c0.4,2.7-0.6,5.5-2.8,7.2L701,796.5C699,798.3,696.4,799.3,693.7,799.2L693.7,799.2z M628.1,709.7
		l65.6,65.6l266.8-266.8c-19.1-23.9-53.1-29.6-78.9-13.3C833.2,516.9,755.4,583,628.1,709.7z"/>
	<path class="st1" d="M774.3,869.8l-76.7-78.4l281.3-277.9C1054.5,587.5,942.2,710.9,774.3,869.8L774.3,869.8z"/>
	<path class="st0" d="M774.3,879.9c-2.5-0.2-4.8-1.2-6.7-2.8l-78.4-76.7c-1.2-2.9-1.2-6.1,0-8.9c-0.8-2.3-0.8-4.9,0-7.2L970.6,503
		c4.1-3.8,10.4-3.8,14.4,0c18.4,17,28.6,41.1,27.8,66.1c0,75-85.6,169.5-231.2,307.4C779.6,878.4,777,879.6,774.3,879.9L774.3,879.9
		z M712.1,791.5l62.8,62.8C886,749.2,992.2,640.8,992.8,567.4c0.6-15.6-4.5-30.8-14.4-42.8L712.1,791.5z"/>
	<path class="st1" d="M616.5,711.4l55.6,55.6c1.4,1.2,1.5,3.3,0.3,4.7c-0.1,0.1-0.2,0.2-0.3,0.3l-117.3,25c-6,1.3-11.9-2.5-13.2-8.5
		c-0.8-3.8,0.4-7.7,3.2-10.4l68.4-67.8C613.1,710.3,615.4,710.3,616.5,711.4L616.5,711.4z"/>
	<path class="st0" d="M552,808.1c-7.5-0.1-14.5-4.1-18.3-10.6c-4.4-8.3-2.8-18.5,3.9-25l67.8-68.4c5.1-4.5,12.7-4.5,17.8,0
		l55.6,55.6c3.3,3.1,4.6,7.9,3.3,12.2c-1.3,4.4-4.9,7.9-9.4,8.9l-117.3,25L552,808.1z M614.2,723.7l-62.8,62.8l104-22.2L614.2,723.7
		z"/>
	<path class="st1" d="M1124.5,351.8c-40.2-38.8-103.4-40.4-145.6-3.8s-49.4,99.5-16.6,144.7c32.9,45.2,94.8,57.9,142.7,29.2
		l-75.6-75.6L1124.5,351.8z"/>
	<path class="st0" d="M1049.5,547.4c-47.3-0.6-89.6-29.4-107.5-73.1c-17.9-43.7-8.1-93.8,25-127.5c46.3-45.4,120.5-45.4,166.8,0
		c2.1,1.8,3.3,4.4,3.3,7.2c0,2.8-1.2,5.4-3.3,7.2l-90.1,85l68.4,67.3c2.2,2.1,3.3,5.3,2.8,8.3c-0.3,3-2,5.6-4.4,7.2
		c-18.4,11.5-39.5,17.8-61.1,18.3L1049.5,547.4z M1049.5,331.7c-39.6,0.2-75,24-89.9,60.5s-6.8,78.3,21,106.3
		c28.3,28.4,71.1,36.6,107.8,20.6l-65.6-65.6c-3.8-3.1-4.5-8.7-1.4-12.5c0.4-0.5,0.9-1,1.4-1.4l86.7-87.3
		C1092.3,339.1,1071.2,331.8,1049.5,331.7L1049.5,331.7z"/>
	<path class="st1" d="M1126.2,353.4l-95.1,94.5l75.6,75.6c7.6-4.4,14.7-9.6,21.1-15.6C1169.1,464.4,1168.3,396.1,1126.2,353.4
		L1126.2,353.4z"/>
	<path class="st0" d="M1105.1,531.9c-2.5,0.1-5-0.9-6.7-2.8l-75.6-75.6c-3.8-3.1-4.5-8.7-1.4-12.5c0.4-0.5,0.9-1,1.4-1.4l94.5-92.8
		c3.1-4.6,9.3-5.9,13.9-2.8c1.1,0.7,2.1,1.7,2.8,2.8c46,45.1,46.8,119,1.7,165.1c-0.6,0.6-1.1,1.1-1.7,1.7
		c-6.5,6.9-14,12.9-22.2,17.8C1109.6,532.3,1107.3,532.5,1105.1,531.9L1105.1,531.9z M1043.9,446.3l62.8,62.8c4.3-3,8.4-6.4,12.2-10
		c18.5-18.4,28.9-43.4,28.9-69.5c0-23.3-8.5-45.9-23.9-63.4L1043.9,446.3z"/>
	<path class="st1" d="M986.7,519.6c-15.6-14.7-40-14.7-55.6,0L679.3,770.9l41.7,42.3l266.3-233.5c16.4-15.7,17-41.8,1.2-58.3
		C987.9,520.8,987.3,520.2,986.7,519.6L986.7,519.6z"/>
	<path class="st0" d="M718.7,823.2c-2.5-0.1-4.9-1-6.7-2.8l-42.3-42.3c-3.7-3.9-3.7-10,0-13.9l251.8-250.7c20-20,52.4-19.9,72.3,0
		c10,10,15.4,23.6,14.9,37.7c-0.6,14-6.8,27.3-17.2,36.7L725.4,821.5C723.5,822.8,721.1,823.4,718.7,823.2L718.7,823.2z
		 M689.3,770.9l27.8,28.3l261.3-227.4c6.5-5.6,10.3-13.7,10.6-22.2c0.3-8.6-3.1-16.9-9.4-22.8c-12.1-12.1-31.8-12.1-43.9,0
		L689.3,770.9z"/>
	<path class="st1" d="M484.2,1057.2c-1.5,2-1.5,4.7,0,6.7l11.1,48.4c0.9,5.8-1.8,11.6-6.9,14.6c-5.1,3-11.5,2.3-15.9-1.6l-76.1-73.4
		l237.4-239.2H716l55.6,55.6C684.8,944,588.1,1007.6,484.2,1057.2L484.2,1057.2z"/>
	<path class="st0" d="M479.2,1138.9c-6.3-0.1-12.5-2.7-16.7-7.2l-72.8-72.8c-3.8-3.1-4.5-8.7-1.4-12.5c0.4-0.5,0.9-1,1.4-1.4
		l239-239.6c1.3-1.4,3.1-2.4,5-2.8h82.8c2.2-0.8,4.5-0.8,6.7,0l55.6,55.6c2.1,2,3.2,4.9,2.8,7.8c0.1,2.8-1.2,5.5-3.3,7.2l-4.4,3.9
		c-87.1,72.6-182.9,134-285.2,182.9l10.6,45c3,12.9-5,25.8-17.8,28.8c-1.6,0.4-3.3,0.6-4.9,0.6L479.2,1138.9z M411.4,1051.6
		l65.6,66.1c1.3,1.1,3.2,1.1,4.4,0c0.8-1.2,0.8-2.7,0-3.9l-11.1-48.4c-1.8-7.2,1.7-14.6,8.3-17.8c99.5-48.2,192.9-108.3,277.9-179
		l-45.6-45.6h-74.5L411.4,1051.6z"/>
	<path class="st1" d="M339.1,1108.9l55.6-55.6l85.6,85.6l-136.2-9.4c-6.1-0.5-10.7-5.8-10.2-12
		C334.2,1113.9,336.1,1110.7,339.1,1108.9L339.1,1108.9z"/>
	<path class="st0" d="M481.9,1147.2l-135.6-9.4c-8-0.8-15-6.3-17.8-13.6c-2.8-7.4-1.1-16.1,4.5-22l55.6-55.6c3.9-3.7,10-3.7,13.9,0
		l85,85c2.4,3.3,2.4,7.8,0,11.1C486.2,1144.8,484.3,1146.4,481.9,1147.2L481.9,1147.2z M346.3,1116.1l111.2,7.2l-61.1-57.3
		L346.3,1116.1z"/>
	<path class="st1" d="M723.7,819.3l-112.3,17.2l65-64.5L723.7,819.3z"/>
	<path class="st0" d="M611.5,847c-3.8,0.1-7.3-2.1-8.9-5.6c-2.4-3.3-2.4-7.8,0-11.1l64.5-65c4.1-3.8,10.4-3.8,14.4,0l47.3,47.2
		c1.9,3.1,1.9,6.9,0,10c-0.9,3.7-4,6.6-7.8,7.2L609.8,847H611.5z M676.5,786.4l-36.1,36.1l62.3-9.4L676.5,786.4z"/>
	<path class="st1" d="M723.7,819.2l-78.4,10c-5.4,1.2-10.7-2.2-12-7.5c-0.7-3.3,0.2-6.7,2.5-9.1l40.6-40.6L723.7,819.2z"/>
	<path class="st0" d="M643.1,839.8c-7.4-0.1-14.2-4.1-17.8-10.6c-4.4-7.8-3-17.6,3.3-23.9l40.6-40.6c4.1-3.8,10.4-3.8,14.4,0
		L731,812c4,3.8,4.2,10.1,0.4,14.1c-1.7,1.8-4,2.9-6.5,3.1l-77.8,10L643.1,839.8z M643.1,819.3l58.9-7.2l-26.1-26.1l-33.4,33.4
		H643.1z M1126.7,417.4c-2.2-3.6-6.7-5.1-10.6-3.3c-1.9,0.9-3.3,2.6-3.9,4.6c-0.6,2-0.4,4.1,0.5,6c3.9,8.2,2.8,17.9-2.8,25
		c-1.4,1.4-2.2,3.3-2.1,5.3c0,2,0.8,3.8,2.1,5.3c1.4,0.6,3,0.6,4.4,0c2.6,0.7,5.4-0.2,7.2-2.2C1131.1,446.5,1133,430.7,1126.7,417.4
		L1126.7,417.4z"/>
</g>
</svg>
