<?xml version="1.0" encoding="utf-8"?>
<!-- Generator: Adobe Illustrator 26.0.3, SVG Export Plug-In . SVG Version: 6.00 Build 0)  -->
<svg version="1.1" id="Layer_1" xmlns="http://www.w3.org/2000/svg" xmlns:xlink="http://www.w3.org/1999/xlink" x="0px" y="0px"
	 viewBox="0 0 24 24" style="enable-background:new 0 0 24 24;" xml:space="preserve">
<style type="text/css">
	.st0{fill:url(#SVGID_1_);}
</style>
<linearGradient id="SVGID_1_" gradientUnits="userSpaceOnUse" x1="2" y1="12" x2="22" y2="12">
	<stop  offset="0" style="stop-color:#00ADEE"/>
	<stop  offset="1" style="stop-color:#584895"/>
</linearGradient>
<path class="st0" d="M22,17.7c0-0.5-0.3-0.8-0.8-0.8H2.8c-0.4,0-0.8,0.4-0.8,0.8s0.3,0.8,0.8,0.8h18.5C21.7,18.5,22,18.1,22,17.7z
	 M22,12c0-0.5-0.3-0.8-0.8-0.8H2.8C2.3,11.2,2,11.5,2,12s0.3,0.8,0.8,0.8h18.5C21.7,12.8,22,12.5,22,12z M22,6.3
	c0-0.5-0.3-0.8-0.8-0.8H2.8C2.3,5.5,2,5.9,2,6.3c0,0.5,0.3,0.8,0.8,0.8h18.5C21.7,7.2,22,6.8,22,6.3z"/>
</svg>
